<?xml version="1.0" encoding="UTF-8"?>
<svg viewBox="0 0 1041.433 692.50323" xmlns="http://www.w3.org/2000/svg">
 <g transform="matrix(.28075 0 0 .28075 878.62 -79.544)" fill="#194a70" fill-rule="evenodd">
  <path d="m-2792.2 765.24c-8.3057 38.528-0.3142 72.393 8.7778 107.97 54.984-8.08 88.379-13.461 125.52-19.311-1.0438 24.409 8.0667 35.279 28.089 31.6-9.6352 188.34-10.026 369.75-10.534 551.25 26.308 18.375 55.819 7.9158 84.268 7.0223 15.67-189.75 9.4297-362.04 14.045-575.83 23.632 6.0763 18.609-16.503 17.556-35.112 55.142-12.741 114.69-21.079 172.05-31.6-51.823-27.546-106.19-50.85-165.02-66.712-9.7371-12.174-23.298-5.2302-35.112-7.0223l-7.0223-19.311c-28.951-1.8257-62.586-5.785-75.49 6.1445-0.062 3.199 0.028 27.296-15.8 24.578-57.916 10.241-91.731 16.093-141.32 26.334z"/>
  <path d="m-3121.4 485.22c-3.2497 40.391-4.8034 80.103 3.5112 115.87 1.1953 20.141 30.518 23.094 73.734 17.556 9.1699-8.9718 30.729-10.864 56.178-10.533 6.8784 8.4926-20.037 22.321 26.334 24.578 5.5976 221.53 3.821 435.69 5.2667 653.07 34.526 12.23 69.053 5.6979 103.58-5.2667-3.5386-221.79-13.964-443.58-7.0223-665.36 26.334 6.437 35.112-2.3407 26.334-26.334 49.741-21.067 96.365-35.898 149.22-63.201l-1.7556-15.8c-20.583-12.874-95.971-25.748-143.96-38.623-10.814-2.6213-16.51-0.12441-22.823 1.7556l1e-4 -15.8c-34.452 0.4733-64.151-6.1824-107.09 7.0223l-0.8778 22.822c-55.003-0.58731-79.109-13.224-160.64-1.7556z"/>
  <path d="m-2478.9 546.67c-85.441 49.852-26.888 155.09 5.2667 149.22 61.335-10.684 40.96-44.417 50.912-52.667 11.704-5.852 22.237-5.8519 31.6 0 6.6903 20.363 15.247 37.693 40.378 28.089 22.53 256.41 36.801 515.58 52.667 774.21 31.563 22.759 71.378 7.5982 100.07-7.0223l-84.268-767.19c12.434-2.2196 27.326-2.3915 26.334-15.8 38.623 8.2469 77.245 40.188 115.87 63.201 25.098 2.5196 49.092 3.1056 64.956-10.533-59.774-47.379-117.43-95.288-186.09-140.45-7.8507-4.5372-16.162-7.6912-26.334-5.2667l-1.7556-26.334c-23.578-11.044-40.32-1.581-59.69 0-13.963 3.1029-1.2347 38.312-1.7555 36.867-2.3815-6.6061-73.734 10.533-73.734 10.533-19.058-26.043-37.684-45.607-54.423-36.867z"/>
  <path d="m-2133 339.51c-31.87-8.5239-51.677-37.152-77.245-56.178-17.478 35.118-11.537 116.34 45.645 298.45 31.22-32.478 40.1-78.097 107.09-89.534l61.445 7.0223c24.1 117.3 6.2883 206.67 5.2667 307.23-2.778 158.59-9.1874 302.66-14.045 452.94-1.918 90.217-18.779 135.61-31.6 193.11 5.9151 61.183 191.7 32.218 184.34 3.5112-15.855-68.203-33.933-125.74-38.623-247.54 5.0048-172.63 15.483-345.26 29.845-517.89 8.2543-59.499 17.148-118.23 14.045-191.36 14.63 2.6176 29.26 4.3142 43.889 0 3.5112-47.401 3.5112-95.971 0-145.71-105.81-13.094-219.96-9.5008-330.05-14.045z"/>
  <path d="m-1469.4 390.42c21.921-1.0361 40.754-3.6157 71.979 0 5.534 44.226 0.5898 71.986-5.2667 98.312-8.7179 1.8156-17.216 3.8508-21.067 10.533-24.069 1.4751-47.796 1.581-70.223-3.5112-11.851-5.8028-21.751-12.256-14.045-24.578-22.989-8.1095-69.053-4.6815-103.58-7.0223-2.7821 18.461-7.1207 33.462-24.578 19.311-12.101 1.4906-27.426 0.83237-35.112 5.2667-4.7762-5.8519-6.9833-11.704-3.5112-17.556-80.574 21.444-48.179 100.95-45.645 152.74 51.718 52.106 83.924 178.86-3.5112 249.29 2.3898 16.971 2.2201 33.941-5.2667 50.912-6.5884 56.399 13.32 101.49 129.91 105.33 47.597-0.5852 93.379-1.1704 143.96-1.7556-5.0037-3.0022 12.438-8.7754 22.822-8.7778 12.082 0 30.632-0.1968 29.845 0 8.1679 25.138 1.2522 35.193 1.7556 52.667-9.9126-1.6754-18.012 0.2446-26.334 1.7556l3.5111 10.534 21.067-1.7556c11.376 21.624 4.3716 45.289 1.7556 68.467 53.719 5.033 26.675 32.092 10.533 56.178-9.7131 29.315-12.715 55.803 8.7779 71.979 21.31 29.298 38.941 59.004 1.7556 94.801-14.256 30.504-9.3969 35.839-9.2039 51.426 26.477 5.6771 58.035-2.1949 79.427 17.042 38.768 45.718 11.081 58.208-3.5111 77.245-55.746 23.646-156.9 52.336-238.76 0-25.713-16.133-45.59-52.128 3.5111-77.245 18.501-7.3386 37.778-11.571 57.934-12.289-1.7233-15.242 6.0181-38.371-5.2667-45.645-30.056-35.005-29.226-72.386 5.2667-112.36 13.935-20.469 13.883-43.036-5.2667-68.467-3.767-17.859-27.939-35.038 14.045-54.423l-1.7556-64.956 26.334 1.7555v-14.045c-76.832 1.3092-154.63 13.249-229.98-1.7555-85.11-25.934-88.513-85.913-96.557-143.96-11.837-21.588-9.7893-37.623-5.2667-52.667-58.624-49.398-59.367-182.97-1.7556-240.51-0.5777-27.648 0.9981-54.759 7.0223-80.756 35.748-164.81 122.13-125.55 187.85-136.93 31.015 4.0033 62.03 6.1008 93.046 3.5112l-1.7556-12.289c-8.987-1.2749-13.332-0.22892-19.311 0l-3.5111-21.067c12.723 3.6054 22.072 4.9614 29.845 5.2667l3.5112 10.533c5.4142-16.477 14.214-17.155 24.578-10.533z"/>
  <path d="m-1351.8 530.87c-73.824 2.1491-160.37 182.92-15.8 242.27 41.606-2.3866 83.533 11.264 122.89-103.58 20.018-9.8943 39.244 14.238 61.445-89.534 5.2562-59.688 14.64-119.97 28.089-180.82 14.99-6.9674 2.6664-71.295 47.401-15.8 61.04 32.454 129.21 29.261 200.14 12.289 8.8102 13.556 11.687 9.3117 15.8 8.7779-4.2307 7.0512 61.431 218.19 63.201 226.47 5.5071 25.779 34.39 47.548 31.6 38.623 40.963 52.951 81.927 18.727 122.89 28.089 4.5558 16.731 17.322 10.883 28.089 10.533 95.12 38.116 80.478-1.1005 110.6-8.7779 24.394 2.0064 53.809-0.17078 71.979 7.0223 9.9034-9.4534 14.636-6.8425 17.556 0 2.6584 25.643 11.29 9.8088 15.8-1.7556 0.77752-4.0469 9.1619-9.0014 12.289 0 1.8835 26.678 14.937 20.756 21.067 3.5112 10.222-7.084 7.5795 0.53355 10.533 1.7556 4.3649 28.095 10.894 16.153 17.556 1.7556 5.2042-1.8409 11.047-8.786 14.045 7.0223 4.6815 24.587 9.3631 5.0323 14.045 3.5112 4.7267-13.82 6.1795-1.4503 8.7779 1.7556 5.6487 17.929 11.653 6.9642 18.434-1e-5 0.89593-8.4096 41.523 3.5095 11.411-26.334-3.7451-3.0425-7.3319-5.6103-8.7779-1.7556-2.7138 1.4938-4.1019 7.6275-8.9183 1.7623-3.0377-12.91-10.224-9.0058-13.034-3.7241-4.1759 0.10971-15.861 3.454-16.759-3.7241-1.474-8.8441-7.0337-11.789-13.034-5.5862-9.3514 9.6541-21.269 2.6208-20.483 0-4.5491-15.263-7.7363-6.0119-11.172-1.2414-3.6332-0.96315-12.21 9.9381-10.552-3.7241-5.2839-4.5532-10.736-11.295-14.897-1.2414-12.914 8.0286-16.71 1.2393-20.483-5.5862-13.573 5.1455-17.802 9.9432-47.172 0-11.166 2.2822-27.2-0.30316-46.552-6.2069-29.711-71.086-74.392-32.39-112.97-38.483-31.95 0.11247-60.57-3.1809-100.39-12.789-12.702-3.0648-30.558 6.8196-30.572 22.609-55.179-5.9286-52.881-248.36-119.38-284.4-22.622-57.483-119.16-50.904-240.51-22.822-40.195 8.1543-39.964 41.841-50.912 68.467-12.289 66.712-21.531 150.18-36.867 200.14-4.6326 40.576-12.553 28.548-19.311 35.112-22.475-102.97-65.302-100.58-107.09-103.58z"/>
  <path d="m-133.42 416.76c1.8935-39.855 50.269-80.317 117.62-87.779-3.1662-5.2485 53.971-30.895 64.956-24.578 12.324-1.7039 24.294-3.937 33.356-10.533 33.162 71.891 50.85 146.1 50.912 222.96-16.762-0.64786-24.885 22.41-40.451-1.0418-50.897 0.64237-101.79-1.2993-152.66 1.0418-37.061-11.314-59.815-29.782-73.734-52.667-3.972 19.946-27.914 31.905-64.956 38.623-56.178 9.6805-112.36 15.763-168.54 29.845-18.234 34.374-24.499 12.894-33.356 3.5112-27.321-11.521-54.253-41.691-3.5112-107.09 90.11-4.1076 165.25-26.517 270.36-12.289z"/>
  <path d="m-528.43 843.36c-8.8033-10.117-46.243-43.333 3.5112-86.023l205.4-10.533c30.563-2.0875 62.796-18.081 98.312-61.445 1.9306-9.6164 59.105-11.505 64.956-3.5112 18.651 1.6036 191.61 110.34 179.58 119.18-12.958 4.2454-25.735 7.0481-37.062-1.7556-36.084-24.08-67.529-50.48-112.68-70.028-10.1 5.4753-17.688 4.2549-22.822-3.5112-15.118-4.5841-18.946 2.1208-24.578 7.0223 2.3924 9.5698-78.274 83.241-94.801 84.268-38.91 12.043-112.64 10.63-110.6 8.7779 0.40108 18.653-3.3535 25.02-19.311 14.045-10.177 4.6897-21.746 7.0601-36.867 3.5112-1.6922-3.959-0.31272-8.4358-1.7556-14.045-30.131 3.1881-59.627 3.1967-91.29 14.045z"/>
  <path d="m238.76 297.38c0-3.7369 119.38-10.775 119.38 5.2667 0 7.0223 3.5112 47.401 3.5112 47.401 55.761-20.82 109.04-19.325 161.51-10.533 38.4 21.894 60.749 45.023 56.178 70.223-5.4048 73.852-36.829 51.006-49.156 40.378-44.891-38.702-53.717-7.103-75.49 10.533-7.4963 100.44-18.745 200.13-10.533 303.71 30.576 35.697 74.818 71.393 87.779 107.09-9.0722 24.876-15.103 40.628-17.556 45.645-18.726 6.1777-37.452 1.6343-56.178-1.7556l-17.556-19.311c0.77799 56.757 2.3566 115.92 0 163.27-60.6 17.621-120.25 37.624-200.14 7.0223-7.2629-254.09-4.0992-511.65-1.7556-768.94z"/>
  <path d="m208.91 1240.1c27.088-7.8851 38.964-25.911 93.046-15.8l5.2667 45.645c38.697-11.847 76.367-27.117 124.65-7.0223 19.59 10.764 23.065-1.4927 63.201 38.623 20.859 56.116-10.058 40.542-29.845 40.378-13.614-0.3229-20.694-5.5462-21.067-15.8-29.625 3.2916-38.537 19.012-52.667 31.6-2.4575 119.85-6.5212 238.09-12.289 354.63 36.432 38.405 76.606 78.681 107.09 114.11-0.36721 39.277-7.2176 59.104-14.045 79.001-20.759 11.674-30.756 1.8233-45.645 1.7555l-19.311-19.311c-12.289-9.1603-24.578-32.489-36.867-54.423 0.58519 58.599 1.1704 109.15 1.7556 161.51 2.5649 0.855-52.767 12.841-70.223 10.534-10.443-1.3804-110.6-14.045-110.6-14.045-10.731-242.17 11.704-500.92 17.556-751.39z"/>
  <path d="m14.045 1027.7c28.996-77.597 151.51-197.67 105.42-194.14-69.257 21.682-125.48 73.082-137.24 156.03-7.4466 38.886 1.7718 53.132 10.746 59.175 21.934 12.896 31.078 51.372 29.845 110.6l1.7556 54.423-22.822 1.7556c-8.4676 1.9967-4.1544 9.1058-5.2667 14.045l26.334 5.2667c1.1704 38.021 2.3408 56.573 3.5112 84.268-10.88 1.9943-27.188 2.9053-31.813 11.154-8.2986 13.939-2.1278 38.002-5.0537 57.313 3.5227 4.6237 7.1419 8.7649 12.289 5.2667-9.1265 273.22-20.175 549.33-26.334 818.1 22.923 24.299 55.371 8.1124 84.268 7.0223 4.5091-272.95 1.1936-543.94 17.556-819.85l7.0223-1.7556c0.92473-23.685 3.6827-46.758 0-71.979-9.841-3.7793-20.239-6.1662-33.356-1.7556l3.5112-91.29h12.289c7.5624-14.821 1.8065-21.318-3.5112-28.089l-8.7779 1.7556-5.2667-105.33c-1.0871-40.331-20.944-33.25-35.112-71.979z"/>
  <path d="m-814.59 996.1c-13.892 5.3897-7.0983 14.227-1.7556 22.823 1.2685 5.2539 59.486-8.1037 35.112 61.445 2.863-0.7345-56.687 86.646-52.667 154.49 8.9146 14.478-28.888 82.384-49.156 70.223 3.0122 10.602 5.8481 21.34 29.845 15.8 30.69 8.2555 60.387 9.5639 87.779-5.2667 14.045 2.5774 28.089 6.7933 42.134-1.7556-40.437-36.195-17.281-111.1 17.556-193.11 10.635-4.3751 21.121-11.473 33.356 0-1.347 19.72-4.0362 38.098-7.0223 56.178 31.77 9.7024 55.171 2.6668 82.512 3.5111 10.447-15.033 23.439-28.538 42.134-38.623 5.4644-4.9931 8.4971-10.473 29.845-12.289l6.0205 1.0662 0.93103-6.8276 5.8966 5.2759 4.3448-8.6897 5.5862 4.9655 1.8621-7.7586 7.4483 7.138 2.7931-8.069 7.1379 4.3448 3.4138-6.8276 8.6897 6.2069 4.9655-7.1379 7.7586 5.8965 4.6552-7.4482 8.069 6.2069 4.6552-7.4483 9 6.2069 5.8966-5.5862 6.2069 4.6552 9-6.5173 5.2759 7.4483 5.8966-7.4483 9.6207 6.8276 6.5172-8.069 8.3793 5.8966 7.7586-6.2069 4.9655 6.5172 7.1379-6.8276 7.7586 6.8276 7.4483-6.8276 6.2069 8.069 6.8276-7.4483 9 3.7242 5.2759-5.2759 8.3793 4.9655 4.3448-6.2069 7.4483 5.2759 8.3793-6.5173 6.5172 7.7587 7.4483-8.069 10.241-23.586c-4.0422-3.3613-0.66588-7.4644-19.862-9.3103 1.464-5.5266 3.9518-10.541-0.93103-19.241-6.2642-1.0695-11.708-4.6015-21.103 3.7241 0.81894 15.606-8.5902 13.312-13.655 18.621-77.474-0.19-156.8-4.0882-235.86-7.4483-17.073-18.152-32.989-23.571-48.414-23.586-17.829-0.2084-22.142-15.285-23.586-33.517-27.278-14.998-48.765-11.176-69.517-4.9655l-12.414 8.6896c-31.694-20.024-67.861-26.632-109.48-16.869z"/>
  <path d="m-3030.1 1544.7c10.281 10.783 24.255 24.336 43.889 42.134-3.4722 31.728-12.278 50.593-17.556 73.734-13.285 19.211-37.538 20.143-57.056 28.967-20.999-8.5987-40.108-28.543-63.201-24.578-26.818 96.723 50.912 91.23 76.368 115.87l-13.167 1.7556s-8.2975 9.9142-0.8778 14.922c15.111 10.2 23.796 8.0279 23.7 7.9001 8.1264 257.48 20.61 514.97 20.189 772.45-6.4223 24.84-45.552 76.765-0.8778 140.45-0.8105 2.1704 29.035 33.385 67.59 31.6 24.191-1.8847 30.877-9.6041 34.234-18.434-18.488-19.967-36.685-39.752-36.867-48.278 2.5499-20.482 4.9992-40.963 16.678-61.445 4.8264-1.4601 9.5747-2.7641 16.678-8.7779 13.993 15.78 24.863 19.691 27.211-8.7779h9.6557c11.417 5.894 21.582 3.0186 35.112 23.7 7.5152-0.1643 9.9609 1.3612 23.7-0.8778l8.7779-0.8778c-17.713-115.57-75.753-83.575-89.534-105.33-3.5582-0.6898-7.4653 0.017-8.7779-9.6557-1.463-250.17-15.145-497.28-4.3889-750.51 35.951-3.88 30.876-17.228 6.1445-35.112 12.453-43.793 50.351-63.202 11.411-156.25-45.322-47.505-102.85-58.337-129.03-24.578z"/>
  <path d="m-2786.1 1675.5 28.967 35.989-16.678 41.256-22.822 16.678c-17.39-3.1941-28.1-23.089-41.256-36.867-50.204 59.49-18.019 93.536-9.6557 110.6 17.059 17.12 30.688 17.092 45.645 23.7l-1.7556 6.1445c-5.1874-4.0717-10.274-7.7382-13.167-2.6333l-0.8778 14.922c4.1164 9.4592 11.405 10.987 20.189 8.7778l9.6557 16.678c-3.3049 208.83-11.704 412.56-17.556 618.84-22.403 48.064-77.141 51.074-40.378 138.69 20.771 12.648 11.97 38.439 90.412 25.456 1.6374-11.411-8.7228-22.822-15.8-34.234 25.071 3.1121 25.71-11.693 15.8-34.234 6.4304-6.1579 13.523-10.991 24.578-7.9001 4.4698 17.909 15.899 24.218 27.211 30.723 8.1431-24.214 29.559-28.518 16.678-84.268-11.556-16.752-22.228-33.946-47.401-43.889 2.101-217.1 19.936-429.67 26.334-651.32 27.592 10.759 36.303-32.652 6.1445-27.211 12.387-48.038 70.59-62.595 28.967-150.1-28.831-27.958-59.137-52.159-113.23-15.8z"/>
  <path d="m-2603.5 1849.3 25.456 10.533-0.8777 43.012c-8.1326 5.3843-18.611 9.9868-20.189 17.556-15.717 0.8996-24.461-8.6615-35.989-14.045-18.847 34.574 9.3712 50.323 22.822 71.979l0.8778 12.289c-4.9741-0.7124-9.9483-6.0401-14.922 1.7556-4.9045 4.6815-2.8115 9.3631-0.8778 14.045 7.7397 11.487 12.948 10.319 18.434 10.533-1.9361 169.71 1.2582 339.41-11.411 509.12-33.314 59.944-24.601 66.1-20.189 94.801 26.625 31.266 46.999 36.32 66.712 23.7-2.3319-11.405-3.2662-21.879-12.289-37.745-3.7284-8.8322 1.6036-15.399 7.0224-21.945 1.6372 5.9703 1.6931 13.522 12.289 10.533 10.881-0.2012 9.1797-7.9516 8.7779-14.922-0.6293-3.789-4.6377-6.4517-12.289-7.9001 4.0018-5.4559 7.7818-11.355 14.045-12.289l18.434 14.922c5.1017-13.014 22.239-11.585 6.1445-50.034-5.1808-13.018-11.569-24.023-23.7-25.456 2.6328-171.75 0.4149-341.08 7.9001-515.26 37.649 23.241 32.341-20.171 9.6557-14.922 9.464-35.824 50.111-50.86 15.8-115.87-27.842-16.588-56.038-41.679-81.634-4.3889z"/>
  <path d="m-2454.3 1890.6c6.9489 8.9974 9.6039 19.426 22.822 26.334v28.967c-4.7042 5.0194-8.875 8.972-15.8 18.434-11.425 3.8179-15.553 0.3381-22.822 0-12.593-15.627-21-22.083-28.967-23.7-9.5859 7.223-10.845 24.438-8.7778 45.645 17.274 37.021 37.616 34.148 57.056 43.012l-0.8778 11.411c-4.3889-4.7692-8.7779-7.1737-13.167-2.6334l0.8777 13.167c2.3995 12.405 10.799 6.8106 17.556 6.1445 9.1535 139 9.6939 275.85 9.6557 412.56-22.756 29.39-35.185 60.845 0 101.82-6.8676 9.9893 46.274 25.898 63.201-3.5112 1.8054-3.1367-21.945-19.311-21.945-19.311 6.1445-1.3014 12.289 3.9272 18.434-7.9001 0 0 1.3836-10.627 0-16.678-2.6208-11.462-18.929-7.6723-19.311-6.1445 2.4374-8.3741 6.0422-16.415 24.578-20.189 11.008 7.9718 21.067 14.044 34.234 26.334 10.971-15.047 20.61-31.017 1.7556-66.712-23.456-21.31-27.342-15.222-40.378-21.945-8.2313-133.74-9.609-272.97-6.1445-416.07h5.2667c22.974 12.422 20.525 2.598 26.334 0 3.4312-4.0255 5.2961-8.573 1.7555-14.922-7.6731-5.1409-15.646-12.377-21.067-1.7556l-11.411-2.6334 2.6334-17.556c7.3376-24.255 24.894-34.885 6.1445-93.923-43.389-31.77-60.679-11.342-81.634 1.7556z"/>
  <path d="m-2297.2 1910.8c6.1445 0.8778 25.456 17.556 25.456 17.556l-0.8778 26.334c0.3338 19.958-13.969 17.962-21.945 25.456l-17.556-13.167c-8.1293-11.68-12.384-3.9865-18.434-5.2667-8.4432 44.704 3.8249 58.341 18.434 68.467l17.556 8.7779-7.0223 11.411c-4.4436 18.994 5.7689 18.447 14.922 19.311 1.9574 139.28 12.858 278.55 19.311 417.83-13.012 9.8575-24.848 23.481-26.334 70.223 12.797 49.38 38.7 60.636 77.245 35.112-5.7907-7.2537-13.87-16.796-21.945-26.334 3.4731-7.353 2.9008-18.751 1.7556-30.722 6.3318 10.568 14.448 13.104 25.456 2.6333 4.1009-3.2152-0.1528-12.696-5.2667-22.822l13.167-7.9c7.0223 7.9989 14.045 13.582 21.067 19.311 7.8682-8.7446 15.682-17.558 5.2667-49.156-4.8743-24.908-20.474-24.79-31.6-35.112-9.9938-136.26-19.858-266.23-29.845-410.8 8.4826 7.0087 14.889 3.6373 21.067-0.8778 2.0101-12.032 7.3048-26.035-13.167-24.578l-6.1445 0.8777c5.6881-31.469 35.972-41.622 10.533-100.07-30.198-24.823-52.574-18.355-71.101 3.5112z"/>
  <path d="m-2059.3 1629-1.7556-12.289c21.861-3.3374 35.36-13.642 75.49-1.7556 0 0-3.6756 18.507-0.8778 14.045 7.7336-12.335 20.786-3.8612 20.189-0.8778l0.8778 18.434c-4.9852 9.341-14.76 9.1027-26.334 5.2667-17.266 287.04-42.128 574.07-37.745 861.11-15.446 34.064-47.443 35.026-79.001 36.867 14.63-295.52 44.767-552.27 43.889-886.57l-11.411-1.7556c-1.0513-6.6395-5.0183-7.5404 0-26.334l16.678-6.1446z"/>
  <path d="m-1774 1546.5c1.4526-20.342 98.627-14.416 101.82 2.6334-3.5839 21.706 1.9158 40.008-3.5112 57.056l7.0223 0.8777c-1.7297 101.44-17.185 183.28-35.112 261.58 7.2938 38.737-0.7418 54.481-1.7556 80.756-3.7051 6.8283-9.1756 11.891-17.556 14.045 1.2083 14.274-1.5066 27.566-9.6557 39.5 2.1157 25.488-11.557 23.91-25.456 21.945-8.2386 142.59-20.677 293.57-24.578 427.48-11.314 6.3455-22.576 12.316-31.6 2.6334 1.3356-29.711-1.9437-65.192 7.9001-84.268 16.392-174.7 9.7291-219.81 20.189-335.31-7.6914-3.0093-15.482-5.9441-14.045-15.8-10.093 7.381-25.524-3.054-27.212-8.7779-2.6532-8.3489-3.1356-15.612 3.5112-19.311l17.556 2.6333c-2.5111-13.167-10.478-26.334 0-39.5l-14.045-1.7556c-2.1753-15.257-3.0272-30.074 1.7556-43.012l7.0223-0.8778c-13.791-14.541-3.5561-32.514-2.6333-49.156l9.6556 3.5112c0.9292-82.22-0.3444-164.44 14.045-246.66l7.9001-7.0223c-1.4406-23.25 0.8641-44.628 8.7779-63.201z"/>
  <path d="m-1519.5 1693.1c15.783-3.9974 32.198-22.388 81.634 6.1446-3.4168 85.136 6.2369 175.72-22.822 250.17-6.9634 34.701-17.793 77.134-18.434 99.19-2.3195 45.437-15.034 49.294-26.334 58.812l-4.3889 12.289c3.7006-5.2836 9.8319-3.275 15.8-1.7556 4.6647 9.2393 4.3991 16.506-2.6334 21.067-3.3435 1.0454-5.411 3.3669-13.167 0-7.2371 54.404-14.849 110.31-17.556 146.59l-7.9001 8.7778c-5.4261-46.372-3.0658-95.34-1.7556-143.96-0.012-9.9423-1.9208-18.936-15.8-21.945-6.4863 0.449-8.7087-2.5132-3.5111-11.411 7.4184 0.052 12.089-1.2704 23.7 0.8778l-1.7556-12.289c-7.4569-7.2069-16.563 0.4253-21.945-25.456 3.9068-52.461 1.2191-118.11 0.8777-179.07 0.4461-45.09-8.9873-69.432 35.989-208.04z"/>
  <path d="m-1326.3 1729c-0.5638 5.2668-4.0614 93.923-7.9 93.923 1.0465 16.31-2.531 40.711 7.0223 42.134-5.8519 114.79-11.704 213.93-17.556 320.39-6.3798-1.199-5.6642 1.5154-16.678 2.6334-7.3162 0-9.0792 13.638-0.8777 23.7 5.7528 7.0584 45.43 8.854 52.667 0.8778 1.5792-1.7406 0.2516-15.297-4.3889-24.578l-12.289-5.2668c8.4853-103.19 16.971-195.74 25.456-309.86 4.49-3.692 9.1842-6.5671 11.411-19.311 4.7702-35.54 0.9627-76.799-0.8778-116.75-2.768-15.553-22.714-7.0572-35.989-7.9001z"/>
  <path d="m-1513.3 856.53c-25.156 9.058-15.931 83.651 0.8777 81.634 123.18 7.7748 251.31-1.8109 377.45-4.3889 10.807 8.8883 13.409 23.246 47.4 16.678 0 0-0.6897 9.1121-3.5111 7.0223s-11.691-3.6255-12.642-0.77129c-2.9603 4.3196-8.4169 7.9261-0.3636 15.392 18.141 3.1157 2.7647 4.6832 20.906-1.4544-15.484 266.82-29.527 532.21-46.523 800.54-8.2077 3.0961-14.311 9.6994-17.556 21.067-3.238 11.86-1.47 21.217-1.7555 31.6 12.067 9.5993 34.306 11.061 31.6 32.478-5.1525 11.187-20.412 16.31-33.356 22.822-4.5309 18.141-5.4969 36.282-1.7556 54.423 8.7792 15.799 33.046 16.11 26.334 47.4-9.8163 7.8425-20.135 13.677-31.6 14.922-8.1038 19.311-2.7624 38.623-1.7556 57.934 7.0223 12.874 26.893 10.759 21.067 38.623 1.5109 10.052-13.922 12.843-22.822 18.434-7.9024 15.507-1.335 36.801-1.7555 55.301 10.656 13.884 36.415 17.434 18.434 50.912-12.094 2.4774-27.193 0.1461-31.6 14.922-4.0818 7.3149 0.6055 14.63 2.6334 21.945 10.665 3.1452 20.577 5.0357 26.334 0 3.5062 15.818 3.7651 43.001 10.534 47.4 3.4131-1.652 8.111-20.005 13.167-43.012 26.13 20.827 26.04-4.6152 24.578-32.478 12.712-17.062 2.9259-38.623 4.3889-57.934-9.9483-19.024-19.896-20.741-29.845-21.945 12.369-8.4051 27.789-13.76 32.478-29.845 9.538-8.7787 4.0963-36.282 6.1445-54.423-9.3994-22.915-22.548-25.209-35.112-30.723 12.371-10.116 32.452-17.662 35.989-30.723 7.5737-11.445 4.44-33.597 6.1445-50.912 0.9445-19.15-17.532-26.348-37.745-32.478 14.654-4.7686 26.349-16.932 37.745-29.845 4.1428-21.661 7.514-43.168 3.5111-63.201-4.533-12.708-12.034-23.72-28.089-29.845 12.923-4.7476 26.128-8.7397 34.234-26.334 1.3984-6.3706 3.1538-12.265-0.257-25.048-2.2291-10.012-10.38 6.9344-15.543 10.126 13.909-258.76 21.074-521.03 49.156-784.74 11.328 12.791 19.984 4.213 29.845 5.2667 7.167-9.0705 7.1379-18.141 6.1445-27.211 6.7297-4.581 13.459-4.6408 20.189-16.678 102.77-1.7779 216.93-7.3548 329.17-12.289 25.082-19.731 38.002-41.645-0.87779-72.856-112.22-1.9914-225.1-4.9633-330.93 2.6334-3.8057-10.236-11.483-10.793-18.434-13.167-39.818 0.24182-81.526-3.2948-116.75 6.1445-5.8053 0.0397-9.971 5.2717-14.045 10.533-127.28 2.0482-250.91 2.2717-381.84 6.1445z"/>
  <path d="m-523.86 1453.7c32.457-4.9748 60.201 1.0493 85.655 12.414 8.29-72.005 13.778-143.08 28.552-217.24 30.23-3.9147 58.713-14.234 95.586 6.2069l1.2414 9.931c11.409-26.734 91.104-12.262 94.345 4.9655-8.5321 148.28-24.386 294.73-42.207 440.69-10.815 20.168-23.565 60.458-32.276 21.103-12.101 134.46-27.627 268.06-31.034 404.69-4.9722 48.954-7.178 45.347-9.931 52.138-7.29 2.008-13.669 1.2823-18.621-3.7241 6.9209-145.35 15.579-288.97 24.828-432-10.096 1.0755-16.634-3.1874-17.379-16.138l1.2414-16.138c-4.692-58.345-4.5214-116.69 2.4828-175.03-14.017 76.19-21.619 158.79-42.207 228.41-7.8621 14.584-15.724 25.105-23.586 21.104 10.67 38.109-6.293 24.408-12.414 31.034-21.405 125.14-36.389 252.42-50.897 379.86-7.0345-1.4365-14.069 0.5788-21.103 1.2414-2.6636-16.642-4.4572-32.849-2.4828-47.172 11.172-112.55 25.801-221.65 33.517-337.66-29.569-11.66-9.0116-27.363-3.7241-34.759-3.7241-0.6838-7.4483-7.273-11.172-14.896-5.6805-30.151 2.2144-53.514 4.9655-79.448-6.6207 34.345-15.903 58.042-19.862 103.03 7.1987 9.2519 2.9846 13.939-1.2414 18.621-0.0744 12.136-2.9108 23.167-26.069 26.069 4.611 16.923-1.2284 28.145-22.345 31.034-14.734 121.66-26.971 243.31-45.931 364.97-19.331 6.5662-37.63 9.0008-54.621 6.2069-5.2242-25.733-5.3788-54-1.2414-84.414 16.563-90.727 28.334-180.26 53.379-273.1-2.84-9.0675-28.527-4.8075-6.2069-28.552-16.536-11.052-15.157-19.545 17.379-23.586l1.2414-6.2069-11.172-9.931c10.146-119.42 40.49-242.2 63.31-363.72z"/>
  <path d="m-727.45 1504.6c45.578-41.722 82.659-35.299 114.21 2.4828 4.961 194.42-22.701 346.89-49.655 500.28-0.19876 27.757-1.5438 50.928-8.6897 50.897 6.5906 3.1003-7.666 33.482-27.097 23.586 6.6811-2.2409-12.554 293.55-23.799 299.17-18.684-12.172-27.65-36.006-34.759-62.069 9.1034-71.3 18.207-166.34 27.31-249.52-11.83-0.6647-24.22-0.9568-8.6896-19.862-2.5479-0.251-6.4409 2.8609 0-19.862-8.6671-178.57 4.7986-350.83 11.172-525.1z"/>
 </g>
</svg>
